<svg xmlns="http://www.w3.org/2000/svg" fill="currentColor" viewBox="0 0 32 32"><path d="M20.992 20.163a2.884 2.884 0 0 1-2.695-3.03v.007a2.867 2.867 0 0 1 2.687-3.023h.008a2.85 2.85 0 0 1 2.695 3.031v-.008a2.86 2.86 0 0 1-2.688 3.022h-.008zm-9.966 0a2.884 2.884 0 0 1-2.695-3.03v.007a2.867 2.867 0 0 1 2.687-3.023h.008a2.85 2.85 0 0 1 2.695 3.031v-.008q.005.074.005.161a2.867 2.867 0 0 1-2.692 2.862zM26.393 6.465c-1.763-.832-3.811-1.49-5.955-1.871l-.149-.022-.017-.002a.09.09 0 0 0-.081.047c-.234.411-.488.924-.717 1.45l-.043.111a23 23 0 0 0-6.985.016l.129-.017c-.27-.63-.528-1.142-.813-1.638l.041.077a.1.1 0 0 0-.083-.047l-.016.001h.001a24.6 24.6 0 0 0-6.256 1.957l.151-.064a.1.1 0 0 0-.04.034C2.706 10.538.998 15.566.998 20.993q0 1.36.141 2.684l-.009-.11a.1.1 0 0 0 .039.07 24.6 24.6 0 0 0 7.313 3.738l.176.048a.1.1 0 0 0 .028.004q.05-.002.077-.038a17.5 17.5 0 0 0 1.485-2.392l.047-.1a.096.096 0 0 0-.052-.132h-.001a16 16 0 0 1-2.417-1.157l.077.042a.1.1 0 0 1-.048-.083c0-.031.015-.059.038-.076.157-.118.315-.24.465-.364a.1.1 0 0 1 .097-.013h-.001c2.208 1.061 4.8 1.681 7.536 1.681s5.329-.62 7.643-1.727l-.107.046a.1.1 0 0 1 .099.012q.226.188.466.365a.1.1 0 0 1 .038.077.1.1 0 0 1-.046.082c-.661.395-1.432.769-2.235 1.078l-.105.036a.1.1 0 0 0-.062.089q0 .024.011.044v-.001c.501.96 1.009 1.775 1.571 2.548l-.04-.057a.1.1 0 0 0 .106.036h-.001c2.865-.892 5.358-2.182 7.566-3.832l-.065.047a.1.1 0 0 0 .039-.069c.087-.784.136-1.694.136-2.615 0-5.415-1.712-10.43-4.623-14.534l.052.078a.1.1 0 0 0-.038-.036z"/></svg>