<svg width="739" height="624" viewBox="0 0 739 624" fill="none" xmlns="http://www.w3.org/2000/svg">
<path d="M384.555 146.074C401.655 86.4896 450.948 -1.49932 572.751 51.2295C686.162 100.326 669.238 89.7492 702.897 78.32" stroke="currentColor" stroke-width="57.254"/>
<path d="M408.379 187.263C486.173 232.044 657.988 270.47 706.547 81.5377" stroke="currentColor" stroke-width="57.254"/>
<path d="M408.183 190.428C429.05 263.74 469.227 427.555 413.161 605.22" stroke="currentColor" stroke-width="57.254"/>
<path d="M365.017 582.212C368.288 593.778 401.125 598.995 429.348 587.098" stroke="currentColor" stroke-width="57.254"/>
<path d="M56.4535 134.581C67.7512 145.34 103.092 157.317 154.071 119.152C217.795 71.4453 333.458 48.3902 382.852 149.941" stroke="currentColor" stroke-width="57.254"/>
<path d="M54.5577 129.698C81.3411 206.023 183.26 325.111 367.522 196.66" stroke="currentColor" stroke-width="57.254"/>
<path d="M362.172 200.302C382.391 268.278 415.251 433.038 364.596 598.962" stroke="currentColor" stroke-width="57.254"/>
<path d="M349.341 138.395C354.052 142.82 355.873 149.053 356.862 155.552C358.389 165.588 357.68 175.813 354.206 185.376C351.841 191.888 348.458 198.444 344.091 203.661C342.864 205.127 347.054 201.241 348.107 199.625C351.073 195.07 353.085 189.933 354.969 184.783C356.988 179.262 358.749 173.619 360.097 167.865C360.987 164.068 362.355 158.944 361.526 155.003C360.905 152.048 358.582 149.579 357.494 146.777C357.208 146.041 357.618 148.373 357.641 149.174C357.715 151.689 357.531 154.163 357.202 156.656C356.439 162.449 354.994 167.594 352.529 172.815C350.27 177.6 347.546 182.028 344.917 186.576C344.441 187.399 340.941 192.491 343.965 190.235C349.936 185.781 352.732 177.043 353.698 169.686C354.664 162.335 354.442 155.041 354.896 147.675C354.95 146.801 354.971 143.587 355.383 147.139C355.801 150.731 356.136 154.35 356.396 157.961C356.662 161.66 356.069 165.326 355.377 168.953C354.498 173.567 352.936 177.791 350.746 181.864C349.527 184.129 348.328 187.302 346.617 189.192C345.174 190.786 349.3 185.794 350.48 183.965C353.32 179.562 355.781 174.854 357.525 169.824C360.592 160.983 362.784 149.424 359.847 140.274C359.325 138.65 358.602 137.119 358.099 135.489C357.375 133.139 358.636 136.051 358.841 136.716C362.71 149.308 359.233 161.992 355.491 174.105C354.492 177.339 353.524 180.587 352.443 183.79C352.253 184.352 351.753 185.281 351.788 185.941C351.884 187.739 354.459 185.894 354.901 185.518C358.772 182.22 362.087 177.713 365.319 173.727C368.908 169.3 372.845 165.009 376.068 160.257C380.27 154.062 380.696 147.214 383.129 140.356C384.23 137.251 385.883 134.295 387.446 131.438C388.725 129.1 390.862 126.941 393.311 126.137C398.568 124.413 399.438 143.782 399.978 146.836C401.683 156.468 405.186 164.392 412.226 170.538C414.489 172.513 413.298 169.567 412.79 168.012C410.672 161.522 408.311 155.148 406.547 148.521C405.448 144.393 404.59 140.202 403.641 136.032C403.125 133.764 404.24 139.642 404.253 139.713C405.747 147.913 406.639 158.212 412.093 164.596C413.525 166.272 415.264 167.824 417.324 168.464C417.995 168.672 418.69 168.751 419.359 168.959C419.411 168.975 420.355 169.366 420.363 169.242C420.423 168.261 414.989 164.263 414.27 163.524C409.94 159.072 406.914 154.073 404.808 148.02C404.423 146.914 403.295 141.65 403.413 141.927C405.14 145.963 405.855 150.384 407.776 154.358C410.522 160.036 414.463 163.929 420.144 165.806C421.728 166.33 425.175 167.869 421.421 168.643C416.01 169.758 411.837 165.268 409.721 160.363C406.778 153.541 406.269 145.446 407.353 138.033C407.462 137.285 407.542 135.05 407.311 135.766C406.048 139.678 406.951 145.388 407.771 149.286C409.289 156.503 413.693 162.899 419.697 166.419C420.731 167.025 421.966 167.53 422.843 168.41C423.872 169.444 421.289 169.408 420.797 169.195C412.807 165.736 410.3 154.32 409.008 146.162C408.351 142.016 407.972 137.78 407.741 133.576C407.668 132.237 408.296 131.03 408.297 129.72C408.297 126.196 407.182 136.719 407.239 140.242C407.326 145.586 408.374 150.684 410.568 155.466C413.636 162.155 418.376 166.471 424.391 169.81C424.872 170.078 426.824 171.128 424.981 170.906C421.753 170.516 418.819 168.405 416.69 165.864C410.322 158.261 407.092 145.357 406.577 135.154C406.466 132.945 406.898 132.259 406.948 135.399C407.037 140.939 407.263 146.412 408.847 151.716C410.911 158.629 414.618 165.46 421.138 168.083C422.205 168.513 426.301 170.282 422.802 171.288C417.503 172.811 412.245 165.659 409.969 161.486C405.689 153.636 405.748 142.95 408.413 134.455C408.892 132.931 409.326 131.297 409.925 129.821C410.385 128.685 411.049 126.931 410.056 129.533C407.051 137.403 405.538 146.306 407.164 154.714C407.397 155.919 407.612 159.492 407.941 158.308C408.299 157.019 408.08 155.173 408.123 153.887C408.22 151.013 408.486 148.17 408.765 145.31C409.266 140.179 409.581 135.027 410.507 129.955C411.293 125.647 409.281 135.257 409.167 135.855C408.38 139.99 407.818 144.108 407.559 148.313C407.502 149.237 407.445 150.161 407.388 151.084C407.371 151.359 407.735 146.776 407.763 146.479C408.461 138.972 411.217 116.536 410.689 124.057C410.042 133.267 408.912 142.574 407.442 151.679C406.928 154.862 407.935 151.666 408.247 150.399C409.641 144.748 410.038 138.945 410.626 133.163C410.88 130.677 411.188 128.203 411.584 125.738C411.652 125.315 411.731 124.894 411.798 124.471C411.886 123.918 411.845 123.978 411.695 124.661C410.284 131.105 409.604 137.713 408.425 144.205C408.018 146.445 405.689 152.634 407.059 150.892C407.767 149.993 408.17 147.346 408.405 146.371C409.139 143.323 409.613 140.242 410.109 137.145C410.899 132.205 411.874 127.345 413.211 122.539C413.576 121.225 413.341 123.103 413.33 123.186C413.004 125.592 412.458 127.951 411.937 130.314C410.714 135.865 409.903 141.472 409.086 147.102C408.831 148.863 408.444 152.064 409.035 147.936C409.83 142.378 410.763 136.871 411.849 131.368C412.35 128.829 413.561 121.662 412.346 128.838C410.982 136.892 406.284 160.837 408.762 153.09C410.57 147.438 410.794 141.294 411.711 135.446C412.155 132.622 412.404 128.976 413.501 126.299C414.702 123.369 412.43 132.594 412.01 135.76C411.275 141.291 410.742 146.844 410.077 152.383C409.955 153.396 410.215 156.168 409.595 155.406C409.301 155.044 409.902 151.404 409.923 151.192C410.535 145.181 410.981 139.191 411.353 133.159C411.467 131.311 411.974 125.789 411.672 127.614C410.863 132.515 410.393 137.512 409.759 142.441C409.084 147.697 408.498 152.956 408.172 158.248C407.91 162.496 409.217 153.253 409.272 152.555C409.344 151.647 409.92 141.173 409.188 141.027C408.165 140.824 407.402 150.896 407.386 151.848C407.26 159.706 412.666 166.614 417.666 171.759C419.734 173.888 418.7 172.873 417.156 170.817C413.314 165.698 410.375 160.176 407.668 154.278C407.508 153.929 403.933 145.671 405.431 147.123C409.04 150.621 411.798 155.462 415.214 159.249C417.713 162.019 420.561 164.668 422.603 167.878C423.175 168.777 424.731 171.27 422.589 169.207C419.09 165.837 416.463 161.274 413.611 157.279C412.209 155.314 408.187 149.413 409.028 151.727C411.359 158.141 415.718 163.242 420.387 167.742C420.652 167.997 423.237 170.311 422.292 169.977C418.038 168.47 414.722 165.542 411.558 162.224C410.557 161.174 407.575 158.014 408.674 158.944C410.284 160.306 411.762 161.869 413.307 163.317C415.746 165.604 418.579 167.688 420.583 170.462C421.144 171.238 423.331 174.878 420.63 174.109C418.989 173.641 417.546 172.249 416.397 170.992C413.035 167.314 410.152 162.943 407.631 158.559C405.604 155.036 403.879 151.324 402.013 147.7C401.451 146.608 400.244 143.363 399.084 142.571C398.123 141.914 398.783 145.063 398.969 146.281C399.631 150.641 401.003 154.845 402.385 158.975C405.711 168.916 409.79 178.531 413.024 188.511C415.038 194.726 412.474 184.287 412.244 183.489C408.942 172.026 405.912 160.464 403.147 148.829C401.873 143.47 400.744 138.07 399.442 132.72C399.115 131.378 398.424 128.532 398.943 132.344C400.846 146.338 404.459 159.71 409.364 172.774C411.922 179.585 414.661 186.326 417.467 193.019C417.654 193.466 420.932 200.081 420.899 199.928C419.223 192.105 415.532 184.305 412.647 176.965C408.222 165.708 403.974 154.444 400.082 142.952C398.723 138.939 399.566 142.068 399.955 143.535C401.411 149.022 403.296 154.31 405.415 159.531C409.953 170.713 415.032 181.605 421.456 191.64C422.101 192.649 423.788 195.794 423.451 194.619C422.914 192.747 421.56 190.688 420.709 189.034C415.601 179.11 411.225 168.943 407.254 158.413C405.432 153.582 403.946 148.368 401.737 143.719C400.733 141.607 402.366 148.459 403.053 150.719C407.416 165.077 413.212 178.988 419.687 192.344C420.098 193.191 420.844 195.005 419.942 192.63C418.462 188.736 417.03 184.82 415.627 180.891C411.484 169.286 407.714 157.566 404.433 145.633C403.925 143.785 402.568 138.232 402.705 140.16C402.929 143.313 403.741 146.575 404.414 149.621C406.925 160.979 410.243 172.096 412.769 183.448C413.183 185.312 413.711 187.328 413.931 189.256C413.978 189.664 413.377 188.673 413.219 188.301C408.635 177.561 405.395 166.236 402.342 154.885C400.585 148.353 399.072 141.699 397.108 135.235C395.286 129.239 396.118 136.025 396.313 137.451C398.723 155.087 404.998 171.476 409.391 188.533C410.137 191.429 410.924 194.415 411.456 197.376C411.684 198.643 410.523 195.006 410.111 193.797C406.436 183.013 402.801 172.212 399.496 161.283C397.724 155.424 396.074 149.521 394.319 143.656C393.668 141.48 392.223 134.949 392.082 137.239C391.874 140.609 393.445 145.447 394.135 148.47C395.946 156.396 398.039 164.237 400.426 171.977C403.486 181.901 407.002 191.639 410.04 201.573C410.141 201.902 410.234 202.236 410.365 202.553C410.565 203.036 410.169 201.513 410.029 201.006C408.931 197.016 407.712 193.06 406.542 189.096C402.34 174.856 398.164 160.642 394.293 146.288C393.185 142.183 392.321 136.262 390.313 132.428C389.757 131.366 390.418 134.883 390.609 136.09C391.329 140.64 391.912 143.559 392.993 148.227C397.243 166.584 414.731 220.122 409.138 202.206C405.173 189.504 401.418 176.712 397.676 163.928C395.6 156.834 393.573 149.717 391.384 142.662C390.747 140.607 388.937 134.645 388.771 136.814C388.422 141.388 390.187 147.093 391.165 151.364C393.111 159.859 395.465 168.233 398.011 176.53C400.97 186.175 404.059 195.814 407.264 205.365C409.155 211 403.189 194.218 401.262 188.598C395.381 171.446 390.402 153.957 385.642 136.399C384.974 133.935 384.49 132.694 384.798 136.47C385.263 142.17 386.488 147.713 387.827 153.227C391.295 167.5 394.733 182.016 399.034 196.019C399.494 197.519 401.832 204.485 400.504 198.67C398.001 187.703 394.086 177.07 391.25 166.191C389.158 158.168 387.17 150.112 385.11 142.078C384.343 139.086 382.529 130.132 382.387 133.244C382.198 137.373 383.277 142.121 384.047 146.075C385.592 154.003 387.734 161.786 389.956 169.509C393.564 182.054 397.425 194.561 401.772 206.824C404.974 215.857 395.374 188.752 392.442 179.609C388.221 166.446 385.185 152.605 380.308 139.714C380.116 139.207 380.073 138.504 379.627 138.244C378.485 137.579 379.482 141.08 379.638 142.48C380.356 148.901 381.521 155.291 383.002 161.546C386.171 174.93 390.963 187.755 395.294 200.713C395.974 202.746 397.641 208.946 397.37 206.799C397.031 204.106 395.776 201.08 394.971 198.6C390.088 183.567 385.248 168.563 381.107 153.256C379.749 148.234 378.548 143.16 377.182 138.143C377.092 137.809 377.121 136.96 376.857 137.162C376.562 137.388 376.891 137.941 376.944 138.325C377.111 139.539 377.312 140.747 377.515 141.955C379.962 156.547 383.866 170.704 388.246 184.718C390.162 190.847 392.157 196.944 394.013 203.096C394.805 205.722 397.507 213.395 396.155 211.057C395.202 209.41 394.571 206.865 393.908 205.157C391.57 199.134 389.112 193.166 386.78 187.139C380.941 172.042 376.208 156.577 371.698 140.956C365.703 120.193 379.558 184.111 388.116 203.766C388.537 204.734 389.441 206.51 388.729 203.755C387.665 199.64 386.198 195.642 384.823 191.647C379.726 176.841 375.474 161.855 371.992 146.489C371.703 145.212 371.445 143.925 371.162 142.646C370.683 140.481 371.372 144.404 371.388 144.507C372.251 150.157 373.204 155.765 374.344 161.357C377.605 177.356 381.552 193.141 385.204 209.028C385.351 209.667 385.485 210.31 385.63 210.95C385.727 211.377 385.483 210.084 385.392 209.655C384.348 204.742 383.18 199.862 381.914 195.013C378.068 180.27 373.809 165.725 370.662 150.765C369.905 147.167 368.252 136.307 368.261 140.005C368.275 145.789 369.72 152.114 370.665 157.708C373.6 175.087 376.794 192.454 380.029 209.767C380.625 212.958 380.373 209.26 380.351 208.95C380.108 205.405 379.385 201.904 378.73 198.436C375.855 183.201 372.818 168.003 370.04 152.745C369.356 148.989 368.31 137.697 367.851 141.507C367.326 145.861 368.433 151.498 368.903 155.728C370.756 172.388 373.922 188.826 376.074 205.436C376.285 207.061 377.221 211.83 376.635 210.321C375.757 208.058 375.537 204.006 375.119 201.783C372.155 186.012 368.444 170.482 366.552 154.475C366.181 151.339 364.955 145.443 365.615 142.058C366.264 138.73 366.149 148.816 366.374 152.199C367.31 166.264 368.841 180.261 370.134 194.286C370.579 199.11 371.042 203.938 371.26 208.784C371.294 209.523 371.32 210.263 371.328 211.004C371.33 211.2 371.347 211.779 371.291 211.592C371.187 211.245 371.209 210.866 371.177 210.502C370.166 198.868 368.801 187.276 367.88 175.633C367.196 166.989 366.166 157.932 367.373 149.257C367.576 147.8 367.473 152.198 367.464 153.67C367.413 162.256 367.645 170.82 368.08 179.387C368.52 188.057 369.053 196.729 369.654 205.385C370.225 213.596 368.147 189 367.196 180.835C365.932 169.978 365.22 158.972 365.157 148.013C365.155 147.562 365.164 147.11 365.173 146.659C365.175 146.528 365.153 146.921 365.148 147.052C365.017 150.615 365.077 154.174 365.125 157.736C365.321 172.148 365.274 215.395 364.978 200.985C364.742 189.512 363.465 178.174 363.825 166.667C364.084 158.402 366.458 133.899 367.269 142.111C367.993 149.446 367.216 157.361 366.854 164.662C366.39 174.03 365.701 183.386 365.281 192.756C365.113 196.49 364.23 207.617 364.998 203.966C366.538 196.639 365.496 188.166 365.521 180.756C365.556 170.512 365.818 160.308 366.911 150.115C367.588 143.808 366.251 153.892 366.142 154.499C364.099 165.844 363.155 177.235 362.261 188.729C362.024 191.77 361.736 194.854 361.808 197.909C361.841 199.301 362.125 195.139 362.178 193.747C362.595 182.829 362.279 171.767 364.514 161.022C364.655 160.342 367.269 151.6 366.084 156.909C364.469 164.146 362.796 171.253 361.794 178.63C361.254 182.608 360.712 186.59 360.195 190.571C359.711 194.301 360.652 190.054 360.723 189.742C362.552 181.707 363.829 173.454 365 165.287C365.43 162.288 365.746 159.269 366.214 156.276C366.61 153.745 366.663 154.879 366.544 156.814C366.028 165.173 365.197 173.761 362.758 181.767C362.001 184.253 361.1 186.766 360.057 189.135C359.743 189.848 359.968 187.553 360.066 186.772C360.619 182.387 361.211 178.041 362.276 173.761" stroke="currentColor" stroke-width="4.77116" stroke-linecap="round"/>
<ellipse cx="158.915" cy="62.76" rx="158.915" ry="62.76" transform="matrix(0.979119 -0.20329 0.165441 0.98622 70.6196 136.39)" fill="currentColor"/>
<ellipse cx="158.097" cy="79.0306" rx="158.097" ry="79.0306" transform="matrix(0.9995 0.0316306 -0.0361236 0.999347 387.95 43.5115)" fill="currentColor"/>
<path d="M29.073 141.002C22.5373 124.446 38.3813 93.5966 76.4579 114.798" stroke="currentColor" stroke-width="1.59039"/>
<path d="M77.6741 134.847C77.951 130.356 77.1222 125.873 75.2677 121.831C73.4133 117.789 70.5958 114.325 67.0874 111.773C63.5791 109.221 59.4984 107.667 55.2396 107.262C50.9808 106.857 46.6878 107.614 42.7753 109.46C38.8628 111.307 35.4629 114.18 32.9041 117.802C30.3453 121.424 28.7141 125.673 28.168 130.139C27.6218 134.604 28.1793 139.135 29.7865 143.293C31.3936 147.452 53.2403 187.386 55.8259 188.832L52.8454 133.316L77.6741 134.847Z" fill="currentColor"/>
<rect width="11.5235" height="6.9511" transform="matrix(0.906176 0.4229 -0.375045 0.927007 65.4944 109.925)" fill="currentColor"/>
<path d="M664.684 58.6108C669.298 59.6965 682.436 59.0993 698.071 48.0247C717.614 34.1814 743.167 50.4676 733.396 88.7402" stroke="currentColor" stroke-width="1.62862"/>
<ellipse cx="711.1" cy="66.7537" rx="22.8007" ry="23.615" fill="currentColor"/>
<rect x="723.246" y="59.4249" width="13.029" height="32.6633" rx="6.51449" transform="rotate(5.22864 723.246 59.4249)" fill="currentColor"/>
</svg>
