<svg width="121" height="135" viewBox="0 0 121 135" fill="none" xmlns="http://www.w3.org/2000/svg">
<path d="M59.4194 56.0031C60.5305 52.1315 63.7334 46.4143 71.6477 49.8404C79.0167 53.0305 77.9171 52.3433 80.1042 51.6006" stroke="#0B7D66" stroke-width="3.72017"/>
<path d="M60.9678 58.6792C66.0225 61.589 77.1865 64.0857 80.3417 51.8096" stroke="#0B7D66" stroke-width="3.72017"/>
<path d="M60.9551 58.8848C62.3109 63.6483 64.9215 74.2924 61.2785 85.8365" stroke="#0B7D66" stroke-width="3.72017"/>
<path d="M58.1499 84.3413C58.3624 85.0928 60.496 85.4318 62.3299 84.6588" stroke="#0B7D66" stroke-width="3.72017"/>
<path d="M38.1012 55.2561C38.8353 55.9552 41.1316 56.7334 44.444 54.2536C48.5846 51.1538 56.1 49.6557 59.3094 56.2542" stroke="#0B7D66" stroke-width="3.72017"/>
<path d="M37.9778 54.939C39.7181 59.8983 46.3404 67.6363 58.3131 59.2899" stroke="#0B7D66" stroke-width="3.72017"/>
<path d="M57.9653 59.5264C59.2791 63.9432 61.4142 74.6488 58.1229 85.43" stroke="#0B7D66" stroke-width="3.72017"/>
<path d="M57.5423 56.2415C57.5756 56.3639 57.6001 56.4907 57.6197 56.6191C57.6255 56.6577 57.6309 56.6963 57.6357 56.7349C57.6378 56.7203 57.6398 56.7056 57.6418 56.6909C57.6632 56.5288 57.6751 56.3681 57.6703 56.2047C57.6688 56.1527 57.6422 56.0011 57.6607 56.0489C57.707 56.168 57.7876 56.2779 57.8491 56.3934C57.8693 56.1212 57.8573 55.8477 57.7958 55.5745C57.7646 55.4878 57.7273 55.4038 57.7001 55.3155C57.653 55.1628 57.7349 55.352 57.7482 55.3952C57.7666 55.4549 57.7824 55.5147 57.7958 55.5745C57.802 55.5917 57.808 55.609 57.8136 55.6264C57.8991 55.8928 57.9177 56.1907 57.8943 56.49C57.9062 56.5204 57.916 56.5515 57.9227 56.5834C57.9766 56.8395 57.8877 57.1724 57.8299 57.4192C57.7423 57.7931 57.6279 58.1597 57.4967 58.5184C57.4891 58.5391 57.4815 58.5598 57.4739 58.5804C57.482 58.5745 57.4884 58.5695 57.4922 58.5662C57.6392 58.441 57.7739 58.2889 57.9023 58.1325C57.9168 58.1148 57.9312 58.0971 57.9456 58.0794C57.9681 57.9199 57.9952 57.7624 58.0253 57.6057C58.0386 57.4613 58.0562 57.3173 58.0798 57.1741C58.0935 56.9301 58.1214 56.5925 58.1532 56.296C58.1538 56.2196 58.1553 56.1432 58.1581 56.0668C58.1584 56.0583 58.1598 56.0328 58.1597 56.0413C58.1591 56.0706 58.1585 56.0999 58.1587 56.1292C58.1589 56.1653 58.1592 56.2014 58.1596 56.2374C58.1672 56.1694 58.1749 56.1042 58.1827 56.0434C58.1735 55.932 58.1722 55.8255 58.1884 55.7423C58.2043 55.6607 58.2132 55.7032 58.2188 55.7996C58.2498 55.6255 58.2784 55.569 58.2959 55.7457C58.3196 55.9859 58.3185 56.2356 58.3086 56.4849C58.3086 56.4891 58.3086 56.4931 58.3085 56.4968C58.3075 56.6663 58.3082 56.8356 58.3105 57.0049C58.3366 57.1797 58.3653 57.3538 58.396 57.5274C58.4309 57.4859 58.4659 57.4443 58.5006 57.4025C58.4643 57.1458 58.4307 56.8886 58.4021 56.6306C58.3715 56.3557 58.2996 55.9894 58.3337 55.7065C58.341 55.6458 58.3506 55.6441 58.3616 55.6796C58.3608 55.6559 58.3604 55.6324 58.3603 55.6089C58.3598 55.3686 58.4671 56.0743 58.5163 56.308C58.5753 56.5885 58.6403 56.8667 58.709 57.1436C58.7293 57.117 58.7495 57.0904 58.7693 57.0635C58.7647 57.0411 58.7601 57.0187 58.7556 56.9963C58.6815 56.6329 58.6196 56.2686 58.5635 55.9014C58.5625 55.8947 58.5177 55.6399 58.5489 55.7805C58.5672 55.8636 58.584 55.9472 58.6028 56.0302C58.604 56.0358 58.6053 56.0414 58.6066 56.047C58.4735 55.437 58.4364 55.1607 58.5836 55.6707C58.6955 56.058 58.8094 56.4438 58.9286 56.8274C59.0016 56.7011 59.054 56.571 59.0969 56.4384C59.0466 56.2057 59.0012 55.9715 58.9616 55.7356C58.9484 55.6571 58.9354 55.5786 58.9245 55.4997C58.9211 55.4748 58.8997 55.4389 58.9189 55.4242C58.936 55.4111 58.9341 55.4662 58.94 55.4879C59.0115 55.7504 59.076 56.0152 59.1445 56.2788C59.15 56.2587 59.1554 56.2387 59.1608 56.2186C59.1369 56.0694 59.1164 55.9197 59.0996 55.7697C59.0894 55.6787 59.0246 55.4513 59.0989 55.4945C59.1278 55.5114 59.1307 55.557 59.1431 55.59C59.1798 55.6868 59.2148 55.7845 59.2485 55.8828C59.2696 55.8064 59.2924 55.7297 59.3189 55.653C59.2912 55.4902 59.2712 55.3233 59.2782 55.1696C59.2844 55.0332 59.3401 55.2536 59.391 55.4712C59.405 55.4398 59.4196 55.4086 59.4347 55.3777C59.418 55.1723 59.4378 55.1976 59.4704 55.3064C59.5146 55.2202 59.5613 55.1356 59.6069 55.0523C59.69 54.9003 59.8289 54.76 59.988 54.7078C60.2566 54.6197 60.3489 55.3788 60.3932 55.8039C60.4023 55.8146 60.4114 55.827 60.4203 55.8407C60.4201 55.8399 60.4199 55.8391 60.4197 55.8383C60.3944 55.7429 60.3396 55.5396 60.4279 55.8004C60.4439 55.8475 60.4599 55.8946 60.4761 55.9415C60.4921 55.9744 60.507 56.0075 60.52 56.0367C60.4522 55.7324 60.3965 55.4242 60.3539 55.1111C60.3204 54.8646 60.3647 55.0467 60.3861 55.1344L60.3863 55.1355C60.4493 55.3941 60.506 55.6546 60.565 55.9143C60.6302 56.0601 60.6859 56.2132 60.7395 56.367C60.7293 56.3226 60.7193 56.2782 60.7094 56.2337C60.6657 56.0358 60.6129 55.8239 60.5984 55.619C60.5932 55.5463 60.6207 55.6372 60.6512 55.7498C60.6932 55.8508 60.726 55.9553 60.7577 56.0603C60.7616 56.0601 60.7674 56.0635 60.7755 56.0714C60.7775 56.0734 60.7795 56.0753 60.7816 56.0773C60.7519 55.9098 60.7271 55.7442 60.699 55.59C60.6982 55.5853 60.6257 55.2034 60.6592 55.3507C60.7191 55.6141 60.7735 55.8787 60.8421 56.1397C60.8432 56.1408 60.8442 56.142 60.8453 56.1432C60.844 56.0608 60.8466 55.9783 60.8527 55.8959C60.8549 55.8558 60.8581 55.8157 60.8621 55.7759C60.8551 55.6791 60.8546 55.5822 60.8648 55.4922C60.8582 55.4247 60.8532 55.3584 60.85 55.2937C60.8428 55.1502 60.8708 55.1056 60.8741 55.3096C60.8747 55.3457 60.8753 55.3818 60.8762 55.4179C60.8819 55.3886 60.889 55.3604 60.8977 55.3334C60.902 55.32 60.9047 55.3226 60.9061 55.3343C60.9261 55.0687 60.9618 54.78 60.9617 54.9407C60.9617 55.0257 60.9208 55.1042 60.9256 55.1912C60.9288 55.2483 60.9323 55.3055 60.9364 55.3627C60.9465 55.3239 60.9575 55.2858 60.9693 55.2483C60.9712 55.2422 60.9731 55.2362 60.975 55.2301C60.9836 55.2002 60.9926 55.1705 61.0019 55.141C61.0146 55.0991 61.0275 55.057 61.0418 55.016C61.0926 54.6083 61.1355 54.3106 61.1171 54.5727C61.1099 54.6764 61.1016 54.7803 61.0925 54.8843C61.1101 54.8395 61.12 54.8135 61.0924 54.8857C61.0871 54.9454 61.0816 55.0051 61.0758 55.0649C61.1067 54.9205 61.1333 54.8026 61.1053 54.9559C61.0739 55.1282 61.0533 55.3019 61.0361 55.476C61.0797 55.1869 61.1201 54.8969 61.1826 54.6119C61.1923 54.5675 61.1949 54.5636 61.1892 54.5995C61.1849 54.627 61.1797 54.6544 61.1753 54.6819C61.1496 54.8421 61.1295 55.0028 61.1131 55.1644C61.1085 55.21 61.104 55.2556 61.0996 55.3013C61.1127 55.2242 61.1267 55.1475 61.1416 55.071C61.1535 54.9816 61.1664 54.8925 61.1811 54.8038C61.19 54.7493 61.188 54.7956 61.1824 54.8732C61.2116 54.7394 61.2442 54.6064 61.281 54.474C61.3048 54.3887 61.2895 54.5107 61.2888 54.5161C61.2774 54.6002 61.2618 54.6834 61.2446 54.7663C61.2396 54.7961 61.2331 54.8346 61.2248 54.8833C61.2074 54.9864 61.1815 55.1297 61.1524 55.2894C61.139 55.4972 61.124 55.7044 61.1067 55.9115C61.1339 55.7115 61.1527 55.5095 61.1836 55.3127C61.2124 55.1292 61.2286 54.8923 61.2999 54.7183C61.3779 54.528 61.2303 55.1274 61.203 55.3331C61.1562 55.6853 61.122 56.0388 61.08 56.3916C61.0826 56.4031 61.0853 56.4147 61.088 56.4263C61.1599 56.5201 61.258 56.6627 61.307 56.7313C61.3157 56.7435 61.3244 56.7558 61.3331 56.7682C61.3586 56.7994 61.3846 56.8298 61.4112 56.8593C61.5475 57.0104 61.6998 57.1559 61.8236 57.3221C61.8956 57.3563 61.9584 57.4024 61.9033 57.439C61.9166 57.4603 61.9329 57.4871 61.9448 57.5098C61.9655 57.5219 61.9863 57.5338 62.0074 57.5456C62.0387 57.5629 62.1656 57.6312 62.0458 57.6167C62.0238 57.6141 62.0019 57.6102 61.9803 57.6051C61.9667 57.6182 61.9424 57.6306 61.9042 57.6416C61.8699 57.6514 61.8356 57.6557 61.8016 57.6551C61.8484 57.7405 61.8938 57.8621 61.7631 57.8249C61.6565 57.7945 61.5627 57.704 61.488 57.6223C61.3839 57.5084 61.2868 57.3842 61.196 57.2546C61.2154 57.3125 61.2347 57.3705 61.2537 57.4287C61.2867 57.5298 61.3641 57.7212 61.217 57.5928C61.2123 57.5887 61.2075 57.5845 61.2028 57.5803C61.3765 57.9923 61.5633 58.3965 61.7682 58.7946C61.8235 58.9021 61.9115 59.0359 61.9464 59.1576C61.9683 59.2339 61.8587 59.0295 61.8168 58.964C61.7022 58.7851 61.5943 58.602 61.4918 58.4154C61.5658 58.6204 61.6411 58.8248 61.7184 59.0283C61.777 59.1826 61.7286 59.0648 61.7019 59.0097C61.5332 58.6619 61.3716 58.3083 61.2203 57.9493C61.2283 57.9697 61.2363 57.9901 61.2444 58.0104C61.4318 58.4874 61.6717 58.9942 61.7806 59.5025C61.7827 59.5124 61.5697 59.0826 61.5576 59.0536C61.43 58.7492 61.3045 58.4433 61.1837 58.1354C61.2073 58.2339 61.2303 58.3326 61.2523 58.4317C61.2792 58.5528 61.3135 58.6838 61.3278 58.8091C61.3297 58.8256 61.3153 58.8069 61.3017 58.7846C61.326 58.8995 61.3315 58.9537 61.2689 58.7606C61.243 58.6807 61.2162 58.6011 61.1888 58.5218C61.1088 58.32 61.0352 58.1154 60.9663 57.9089C60.8335 57.5545 60.698 57.2013 60.5776 56.8415C60.4878 56.5732 60.3987 56.3 60.3556 56.0167C60.3436 55.9375 60.3007 55.7329 60.3631 55.7756C60.3652 55.7771 60.3674 55.7787 60.3695 55.7804C60.3272 55.6189 60.283 55.458 60.2347 55.299C60.1163 54.9094 60.1704 55.3503 60.183 55.443C60.3397 56.5889 60.7474 57.6538 61.0328 58.7621C61.0813 58.9503 61.1324 59.1443 61.167 59.3367C61.1818 59.419 61.1063 59.1827 61.0796 59.1041C60.8408 58.4034 60.6047 57.7016 60.3899 56.9915C60.2747 56.6108 60.1675 56.2272 60.0535 55.8461C60.0118 55.7067 59.9199 55.292 59.9085 55.4234C59.9658 55.6251 60.0055 55.8456 60.0518 56.0172C60.3033 56.9499 60.5747 57.8734 60.8477 58.7987C60.9237 59.0563 61.0029 59.3133 61.0743 59.5725C61.0834 59.6055 61.1091 59.7044 61.0961 59.6731C61.0876 59.6525 61.0815 59.6308 61.075 59.6094C60.8776 58.9639 60.6492 58.3312 60.4503 57.6863C60.2952 57.1834 60.1592 56.6739 60.0416 56.1589C59.9967 55.9625 59.8946 55.6482 59.9081 55.4292C59.9082 55.4272 59.9084 55.4252 59.9085 55.4234C59.8768 55.3115 59.8397 55.2054 59.7932 55.1166C59.7571 55.0476 59.8 55.2761 59.8124 55.3545C59.8551 55.624 59.8903 55.8054 59.9494 56.0651C60.0594 56.4302 60.1645 56.7973 60.2716 57.1634C60.5147 57.994 60.7587 58.8252 61.0164 59.6505C61.3798 60.8146 60.2435 57.3359 59.9673 56.1432C59.9611 56.1163 59.9551 56.0903 59.9494 56.0651C59.9209 55.9704 59.8921 55.8759 59.8628 55.7816C59.8214 55.648 59.7038 55.2606 59.693 55.4015C59.6703 55.6988 59.785 56.0694 59.8486 56.347C59.975 56.899 60.128 57.443 60.2934 57.9822C60.4857 58.6089 60.6863 59.2352 60.8946 59.8558C61.0175 60.2219 60.6298 59.1315 60.5046 58.7663C60.1225 57.6519 59.799 56.5154 59.4897 55.3746C59.4829 55.3496 59.4764 55.3266 59.4704 55.3064C59.4583 55.33 59.4464 55.3538 59.4347 55.3777C59.4348 55.3782 59.4348 55.3787 59.4349 55.3792C59.4555 55.6316 59.499 55.8791 59.5521 56.1246C59.6522 56.5201 59.7512 56.9158 59.8541 57.3104C60.0384 58.0173 60.2927 58.7082 60.4554 59.4208C60.5417 59.7986 60.3898 59.346 60.3598 59.2485C60.0804 58.3387 59.857 57.3954 59.6317 56.468C59.604 56.3538 59.577 56.2395 59.5521 56.1246C59.52 55.9976 59.4877 55.8706 59.4552 55.7436C59.4389 55.6804 59.4155 55.5761 59.391 55.4712C59.3674 55.524 59.3456 55.5775 59.3264 55.6317C59.3239 55.6388 59.3214 55.6459 59.3189 55.653C59.3396 55.7744 59.3647 55.8936 59.386 56.0033C59.4864 56.5184 59.6256 57.0242 59.77 57.526C59.971 58.2247 60.1839 58.9215 60.4186 59.6081C60.5526 59.9921 60.6338 60.2215 60.5378 59.9506C60.4974 59.8367 60.4577 59.7225 60.4186 59.6081C60.2623 59.1602 60.0341 58.5021 59.9316 58.1823C59.689 57.4258 59.5066 56.6349 59.2485 55.8828C59.2175 55.9955 59.1903 56.1077 59.1608 56.2186C59.1803 56.3403 59.202 56.4617 59.2257 56.5825C59.4879 57.5382 59.7905 58.4763 60.0959 59.4162C60.1482 59.5774 60.2297 59.774 60.2518 59.9489C60.2693 60.0885 60.1611 59.6856 60.1169 59.5535C59.8354 58.7116 59.5241 57.8782 59.3182 57.0086C59.2848 56.8675 59.2538 56.7254 59.2257 56.5825C59.2155 56.545 59.2052 56.5075 59.1951 56.4699C59.1779 56.4063 59.161 56.3426 59.1445 56.2788C59.1296 56.3323 59.114 56.3856 59.0969 56.4384C59.2488 57.141 59.4451 57.8302 59.6589 58.5142C59.7834 58.9124 59.913 59.3086 60.0336 59.7083C60.0851 59.879 60.2606 60.3775 60.1728 60.2256C60.1109 60.1186 60.0699 59.9532 60.0268 59.8423C59.8749 59.4509 59.7151 59.0631 59.5637 58.6715C59.329 58.0649 59.1219 57.4491 58.9286 56.8274C58.9097 56.8601 58.8895 56.8926 58.8676 56.9248C58.8564 56.9414 58.845 56.9578 58.8336 56.9742C59.01 57.6458 59.2104 58.3078 59.4365 58.9644C59.5258 59.224 59.6212 59.4838 59.6903 59.7512C59.7366 59.9302 59.6778 59.8148 59.6504 59.7519C59.3952 59.1658 59.0675 57.9738 58.8253 56.986C58.8069 57.012 58.7883 57.0378 58.7693 57.0635C58.9178 57.7849 59.087 58.4998 59.2558 59.2151C59.3348 59.5197 59.4079 59.826 59.4735 60.1345C59.4794 60.1624 59.4952 60.2464 59.4889 60.2187C59.4795 60.1771 59.4708 60.1353 59.4612 60.0938C59.3938 59.8005 59.3249 59.5077 59.2558 59.2151C59.253 59.2044 59.2503 59.1938 59.2475 59.1831C59.0697 58.5015 58.8783 57.8265 58.709 57.1436C58.682 57.1786 58.6547 57.2134 58.627 57.248C58.7634 57.9675 58.9048 58.6859 59.0406 59.4055C59.0831 59.6309 59.1301 59.8584 59.1459 60.0887C59.1473 60.1089 59.1637 60.3492 59.125 60.1418C58.9468 59.1883 58.7706 58.2324 58.6049 57.2755C58.5705 57.3182 58.5357 57.3604 58.5006 57.4025C58.6168 58.2229 58.7615 59.0384 58.868 59.8604C58.8817 59.966 58.9425 60.2759 58.9045 60.1778C58.8474 60.0308 58.8331 59.7675 58.806 59.623C58.6742 58.9221 58.5198 58.2286 58.396 57.5274C58.3758 57.5515 58.3555 57.5755 58.3353 57.5996C58.3827 58.1118 58.4348 58.6236 58.4821 59.1359C58.5109 59.4493 58.541 59.7631 58.5552 60.0779C58.5574 60.1259 58.5591 60.174 58.5596 60.2222C58.5597 60.2349 58.5609 60.2725 58.5572 60.2604C58.5505 60.2378 58.5519 60.2132 58.5498 60.1896C58.4853 59.4473 58.3986 58.7076 58.3389 57.9649C58.3419 58.0326 58.3451 58.1002 58.3486 58.1678C58.3771 58.7312 58.4118 59.2946 58.4509 59.8571C58.4879 60.3906 58.3529 58.7924 58.2911 58.2619C58.2716 58.0942 58.2541 57.926 58.2388 57.7575C58.2222 58.0362 58.2047 58.3149 58.1892 58.5937C58.2023 58.9694 58.2239 59.3651 58.1568 59.7221C58.1555 59.761 58.154 59.771 58.1523 59.7455C58.151 59.752 58.1497 59.7584 58.1483 59.7649C58.1169 59.9144 58.1281 59.6826 58.1433 59.43C58.1289 58.9681 58.0928 58.5091 58.0763 58.0483C58.0561 58.1346 58.0335 58.2201 58.0082 58.3047C57.9974 58.4335 57.9871 58.5625 57.9769 58.6917C57.9737 58.8283 57.9703 58.9647 57.9651 59.1009C57.9617 59.1913 57.9432 59.4618 57.9411 59.3713C57.9364 59.1728 57.9551 58.9724 57.9705 58.7748C57.9726 58.7471 57.9748 58.7194 57.9769 58.6917C57.9794 58.5883 57.9816 58.4848 57.9844 58.3814C57.9704 58.4255 57.9556 58.4697 57.9402 58.5137C57.9184 58.6232 57.8952 58.7322 57.8705 58.8407C57.8659 58.861 57.8048 59.1369 57.8363 58.8945C57.8434 58.8396 57.8506 58.7846 57.8579 58.7296C57.8479 58.7537 57.8377 58.7775 57.8273 58.8012C57.8068 58.8476 57.8215 58.6984 57.8279 58.6477C57.8497 58.4749 57.8724 58.303 57.9023 58.1325C57.7739 58.2889 57.6392 58.441 57.4922 58.5662C57.4884 58.5695 57.482 58.5745 57.4739 58.5804C57.3579 58.8941 57.2317 59.2051 57.0508 59.4828C56.9824 59.5878 56.7101 59.8403 56.7898 59.7451C57.0616 59.4205 57.2746 59.0161 57.4272 58.6109C57.3688 58.6446 57.2941 58.671 57.29 58.5937C57.2877 58.5508 57.3202 58.4904 57.3325 58.4539C57.3866 58.2938 57.4363 58.1319 57.4859 57.9701C57.4024 58.1414 57.3075 58.3064 57.205 58.4653C57.1706 58.5186 57.0976 58.6133 57.0361 58.6922C57.0106 58.7339 56.9835 58.7723 56.954 58.8049C56.9023 58.862 56.9606 58.7891 57.0361 58.6922C57.1066 58.5768 57.1641 58.4369 57.2222 58.3288C57.3646 58.0641 57.4661 57.7896 57.5232 57.4898C57.5549 57.3238 57.5834 57.1564 57.5914 56.988C57.5481 57.1933 57.4883 57.389 57.4077 57.5838C57.3394 58.0517 57.1572 58.5926 56.7817 58.8727C56.5852 59.0193 56.8126 58.6884 56.8435 58.635C57.0143 58.3394 57.1913 58.0517 57.3381 57.7408C57.3629 57.6884 57.386 57.6361 57.4077 57.5838C57.4099 57.5683 57.4121 57.5529 57.4141 57.5375C57.4768 57.0599 57.4624 56.5859 57.492 56.1073C57.4923 56.1009 57.4927 56.0926 57.4931 56.0832C57.4961 56.0091 57.4998 55.8676 57.5236 56.0725C57.5301 56.1287 57.5364 56.185 57.5423 56.2415Z" fill="#0B7D66"/>
<path d="M57.1309 55.5043C57.4371 55.7918 57.5554 56.1968 57.6197 56.6191C57.7189 57.2712 57.6728 57.9356 57.4471 58.557C57.2934 58.9801 57.0736 59.4061 56.7898 59.7451C56.7101 59.8403 56.9824 59.5878 57.0508 59.4828C57.2436 59.1868 57.3743 58.853 57.4967 58.5184C57.6279 58.1597 57.7423 57.7931 57.8299 57.4192C57.8877 57.1724 57.9766 56.8395 57.9227 56.5834C57.8824 56.3914 57.7314 56.231 57.6607 56.0489C57.6422 56.0011 57.6688 56.1527 57.6703 56.2047C57.6751 56.3681 57.6632 56.5288 57.6418 56.6909C57.5922 57.0672 57.4983 57.4016 57.3381 57.7408C57.1913 58.0517 57.0143 58.3394 56.8435 58.635C56.8126 58.6884 56.5852 59.0193 56.7817 58.8727C57.1697 58.5833 57.3513 58.0155 57.4141 57.5375C57.4768 57.0599 57.4624 56.5859 57.492 56.1073C57.4955 56.0505 57.4968 55.8417 57.5236 56.0725C57.5507 56.3058 57.5725 56.541 57.5894 56.7756C57.6067 57.016 57.5681 57.2542 57.5232 57.4898C57.4661 57.7896 57.3646 58.0641 57.2222 58.3288C57.1431 58.476 57.0652 58.6821 56.954 58.8049C56.8602 58.9085 57.1283 58.5841 57.205 58.4653C57.3895 58.1792 57.5494 57.8733 57.6628 57.5464C57.862 56.972 58.0045 56.2209 57.8136 55.6264C57.7797 55.5209 57.7327 55.4214 57.7001 55.3155C57.653 55.1628 57.7349 55.352 57.7482 55.3952C57.9997 56.2134 57.7737 57.0375 57.5306 57.8246C57.4657 58.0347 57.4028 58.2458 57.3325 58.4539C57.3202 58.4904 57.2877 58.5508 57.29 58.5937C57.2962 58.7105 57.4635 58.5906 57.4922 58.5662C57.7438 58.3519 57.9592 58.0591 58.1692 57.8C58.4024 57.5124 58.6582 57.2336 58.8676 56.9248C59.1407 56.5223 59.1683 56.0773 59.3264 55.6317C59.3979 55.43 59.5054 55.2379 59.6069 55.0523C59.69 54.9003 59.8289 54.76 59.988 54.7078C60.3296 54.5958 60.3861 55.8543 60.4212 56.0528C60.532 56.6786 60.7596 57.1935 61.217 57.5928C61.3641 57.7212 61.2867 57.5298 61.2537 57.4287C61.1161 57.007 60.9626 56.5928 60.8481 56.1623C60.7767 55.894 60.7208 55.6217 60.6592 55.3507C60.6257 55.2034 60.6982 55.5853 60.699 55.59C60.796 56.1228 60.854 56.7919 61.2084 57.2067C61.3014 57.3157 61.4144 57.4165 61.5483 57.4581C61.5919 57.4716 61.637 57.4767 61.6805 57.4902C61.6839 57.4913 61.7452 57.5167 61.7457 57.5086C61.7497 57.4449 61.3965 57.1851 61.3498 57.1371C61.0685 56.8478 60.8719 56.523 60.735 56.1297C60.71 56.0578 60.6367 55.7158 60.6444 55.7338C60.7566 55.996 60.803 56.2833 60.9279 56.5415C61.1063 56.9105 61.3624 57.1634 61.7315 57.2854C61.8344 57.3194 62.0584 57.4194 61.8145 57.4697C61.4629 57.5421 61.1918 57.2504 61.0543 56.9317C60.8631 56.4884 60.83 55.9625 60.9004 55.4808C60.9075 55.4322 60.9127 55.2869 60.8977 55.3334C60.8156 55.5877 60.8743 55.9587 60.9276 56.212C61.0262 56.6809 61.3124 57.0965 61.7025 57.3252C61.7697 57.3646 61.8499 57.3974 61.9069 57.4546C61.9738 57.5217 61.8059 57.5194 61.774 57.5056C61.2548 57.2808 61.0919 56.5391 61.0079 56.009C60.9653 55.7396 60.9407 55.4644 60.9256 55.1912C60.9208 55.1042 60.9617 55.0257 60.9617 54.9407C60.9618 54.7117 60.8893 55.3954 60.893 55.6243C60.8987 55.9716 60.9667 56.3028 61.1093 56.6135C61.3087 57.0481 61.6167 57.3286 62.0074 57.5456C62.0387 57.5629 62.1656 57.6312 62.0458 57.6167C61.8361 57.5914 61.6454 57.4543 61.5071 57.2891C61.0933 56.7951 60.8834 55.9567 60.85 55.2937C60.8428 55.1502 60.8708 55.1056 60.8741 55.3096C60.8798 55.6696 60.8946 56.0252 60.9975 56.3699C61.1316 56.819 61.3725 57.2629 61.7961 57.4334C61.8655 57.4613 62.1316 57.5762 61.9042 57.6416C61.5599 57.7405 61.2182 57.2758 61.0704 57.0047C60.7923 56.4946 60.7961 55.8003 60.9693 55.2483C61.0004 55.1492 61.0286 55.0431 61.0675 54.9472C61.0974 54.8734 61.1406 54.7594 61.076 54.9285C60.8808 55.4398 60.7825 56.0183 60.8881 56.5647C60.9033 56.6429 60.9172 56.8751 60.9386 56.7982C60.9619 56.7144 60.9476 56.5945 60.9504 56.5109C60.9567 56.3242 60.974 56.1394 60.9922 55.9536C61.0247 55.6202 61.0452 55.2854 61.1053 54.9559C61.1564 54.676 61.0257 55.3004 61.0183 55.3393C60.9671 55.6079 60.9306 55.8755 60.9138 56.1487C60.9101 56.2088 60.9064 56.2688 60.9027 56.3288C60.9016 56.3466 60.9252 56.0489 60.927 56.0296C60.9724 55.5418 61.1515 54.084 61.1171 54.5727C61.0751 55.1711 61.0017 55.7758 60.9062 56.3674C60.8728 56.5743 60.9382 56.3666 60.9585 56.2843C61.049 55.9171 61.0749 55.54 61.1131 55.1644C61.1295 55.0028 61.1496 54.8421 61.1753 54.6819C61.1797 54.6544 61.1849 54.627 61.1892 54.5995C61.1949 54.5636 61.1923 54.5675 61.1826 54.6119C61.0909 55.0306 61.0467 55.46 60.9701 55.8818C60.9436 56.0273 60.7923 56.4295 60.8813 56.3163C60.9273 56.2579 60.9535 56.0859 60.9687 56.0225C61.0164 55.8245 61.0473 55.6243 61.0795 55.423C61.1308 55.1021 61.1942 54.7863 61.281 54.474C61.3048 54.3887 61.2895 54.5107 61.2888 54.5161C61.2676 54.6724 61.2321 54.8257 61.1983 54.9792C61.1188 55.3399 61.0661 55.7043 61.013 56.0701C60.9964 56.1845 60.9713 56.3925 61.0097 56.1242C61.0613 55.7631 61.122 55.4053 61.1926 55.0477C61.2251 54.8827 61.3037 54.417 61.2248 54.8833C61.1362 55.4066 60.8309 56.9625 60.992 56.4591C61.1095 56.0919 61.124 55.6927 61.1836 55.3127C61.2124 55.1292 61.2286 54.8923 61.2999 54.7183C61.3779 54.528 61.2303 55.1274 61.203 55.3331C61.1552 55.6925 61.1206 56.0533 61.0774 56.4132C61.0695 56.479 61.0864 56.6591 61.0461 56.6096C61.0269 56.5861 61.066 56.3496 61.0674 56.3358C61.1072 55.9452 61.1361 55.556 61.1603 55.1641C61.1677 55.044 61.2006 54.6852 61.1811 54.8038C61.1285 55.1222 61.0979 55.4469 61.0568 55.7672C61.0129 56.1087 60.9748 56.4504 60.9536 56.7943C60.9366 57.0703 61.0215 56.4697 61.0251 56.4243C61.0297 56.3654 61.0672 55.6848 61.0197 55.6753C60.9532 55.6621 60.9036 56.3166 60.9026 56.3784C60.8943 56.889 61.2456 57.3379 61.5705 57.6722C61.7049 57.8105 61.6377 57.7445 61.5374 57.611C61.2877 57.2784 61.0967 56.9195 60.9208 56.5363C60.9105 56.5137 60.6782 55.9771 60.7755 56.0714C61.01 56.2987 61.1892 56.6133 61.4112 56.8593C61.5736 57.0393 61.7586 57.2115 61.8913 57.42C61.9285 57.4784 62.0296 57.6404 61.8904 57.5064C61.663 57.2874 61.4923 56.9909 61.307 56.7313C61.2159 56.6037 60.9546 56.2202 61.0092 56.3706C61.1607 56.7873 61.4439 57.1188 61.7473 57.4111C61.7645 57.4277 61.9325 57.5781 61.8711 57.5564C61.5947 57.4584 61.3792 57.2682 61.1736 57.0526C61.1086 56.9844 60.9148 56.7791 60.9862 56.8395C61.0908 56.928 61.1869 57.0296 61.2872 57.1236C61.4458 57.2722 61.6298 57.4077 61.76 57.5879C61.7965 57.6384 61.9386 57.8748 61.7631 57.8249C61.6565 57.7945 61.5627 57.704 61.488 57.6223C61.2696 57.3834 61.0823 57.0993 60.9184 56.8145C60.7868 56.5856 60.6747 56.3444 60.5534 56.1089C60.5169 56.0379 60.4385 55.8271 60.3631 55.7756C60.3007 55.7329 60.3436 55.9375 60.3556 56.0167C60.3987 56.3 60.4878 56.5732 60.5776 56.8415C60.7937 57.4875 61.0587 58.1122 61.2689 58.7606C61.3998 59.1645 61.2331 58.4862 61.2182 58.4344C61.0037 57.6895 60.8067 56.9383 60.6271 56.1822C60.5443 55.8341 60.471 55.4832 60.3863 55.1355C60.3651 55.0483 60.3203 54.8635 60.3539 55.1111C60.4776 56.0204 60.7124 56.8893 61.0311 57.7381C61.1973 58.1807 61.3753 58.6187 61.5576 59.0536C61.5697 59.0826 61.7827 59.5124 61.7806 59.5025C61.6717 58.9942 61.4318 58.4874 61.2444 58.0104C60.9568 57.279 60.6808 56.5471 60.4279 55.8004C60.3396 55.5396 60.3944 55.7429 60.4197 55.8383C60.5143 56.1948 60.6368 56.5384 60.7744 56.8776C61.0694 57.6042 61.3993 58.3119 61.8168 58.964C61.8587 59.0295 61.9683 59.2339 61.9464 59.1576C61.9115 59.0359 61.8235 58.9021 61.7682 58.7946C61.4363 58.1498 61.152 57.4892 60.894 56.805C60.7756 56.4911 60.679 56.1523 60.5355 55.8502C60.4702 55.713 60.5764 56.1582 60.621 56.305C60.9045 57.238 61.2811 58.1419 61.7019 59.0097C61.7286 59.0648 61.777 59.1826 61.7184 59.0283C61.6223 58.7753 61.5292 58.5208 61.438 58.2655C61.1688 57.5115 60.9239 56.75 60.7107 55.9746C60.6776 55.8545 60.5895 55.4937 60.5984 55.619C60.6129 55.8239 60.6657 56.0358 60.7094 56.2337C60.8726 56.9717 61.0882 57.6941 61.2523 58.4317C61.2792 58.5528 61.3135 58.6838 61.3278 58.8091C61.3309 58.8356 61.2918 58.7712 61.2815 58.747C60.9837 58.0492 60.7732 57.3133 60.5748 56.5758C60.4606 56.1513 60.3623 55.719 60.2347 55.299C60.1163 54.9094 60.1704 55.3503 60.183 55.443C60.3397 56.5889 60.7474 57.6538 61.0328 58.7621C61.0813 58.9503 61.1324 59.1443 61.167 59.3367C61.1818 59.419 61.1063 59.1827 61.0796 59.1041C60.8408 58.4034 60.6047 57.7016 60.3899 56.9915C60.2747 56.6108 60.1675 56.2272 60.0535 55.8461C60.0112 55.7047 59.9173 55.2804 59.9081 55.4292C59.8946 55.6482 59.9967 55.9625 60.0416 56.1589C60.1592 56.6739 60.2952 57.1834 60.4503 57.6863C60.6492 58.3312 60.8776 58.9639 61.075 59.6094C61.0815 59.6308 61.0876 59.6525 61.0961 59.6731C61.1091 59.7044 61.0834 59.6055 61.0743 59.5725C61.0029 59.3133 60.9237 59.0563 60.8477 58.7987C60.5747 57.8734 60.3033 56.9499 60.0518 56.0172C59.9798 55.7504 59.9237 55.3657 59.7932 55.1166C59.7571 55.0476 59.8 55.2761 59.8124 55.3545C59.8592 55.6502 59.8971 55.8399 59.9673 56.1432C60.2435 57.3359 61.3798 60.8146 61.0164 59.6505C60.7587 58.8252 60.5147 57.994 60.2716 57.1634C60.1367 56.7024 60.005 56.2399 59.8628 55.7816C59.8214 55.648 59.7038 55.2606 59.693 55.4015C59.6703 55.6988 59.785 56.0694 59.8486 56.347C59.975 56.899 60.128 57.443 60.2934 57.9822C60.4857 58.6089 60.6863 59.2352 60.8946 59.8558C61.0175 60.2219 60.6298 59.1315 60.5046 58.7663C60.1225 57.6519 59.799 56.5154 59.4897 55.3746C59.4463 55.2145 59.4148 55.1339 59.4349 55.3792C59.4651 55.7496 59.5447 56.1097 59.6317 56.468C59.857 57.3954 60.0804 58.3387 60.3598 59.2485C60.3898 59.346 60.5417 59.7986 60.4554 59.4208C60.2927 58.7082 60.0384 58.0173 59.8541 57.3104C59.7181 56.7891 59.589 56.2656 59.4552 55.7436C59.4053 55.5492 59.2874 54.9674 59.2782 55.1696C59.2659 55.4379 59.336 55.7464 59.386 56.0033C59.4864 56.5184 59.6256 57.0242 59.77 57.526C60.0045 58.3411 60.2553 59.1538 60.5378 59.9506C60.7458 60.5375 60.122 58.7763 59.9316 58.1823C59.6573 57.3269 59.46 56.4276 59.1431 55.59C59.1307 55.557 59.1278 55.5114 59.0989 55.4945C59.0246 55.4513 59.0894 55.6787 59.0996 55.7697C59.1462 56.187 59.2219 56.6022 59.3182 57.0086C59.5241 57.8782 59.8354 58.7116 60.1169 59.5535C60.1611 59.6856 60.2693 60.0885 60.2518 59.9489C60.2297 59.774 60.1482 59.5774 60.0959 59.4162C59.7786 58.4394 59.4641 57.4645 59.1951 56.4699C59.1068 56.1436 59.0288 55.8139 58.94 55.4879C58.9341 55.4662 58.936 55.4111 58.9189 55.4242C58.8997 55.4389 58.9211 55.4748 58.9245 55.4997C58.9354 55.5786 58.9484 55.6571 58.9616 55.7356C59.1206 56.6837 59.3743 57.6036 59.6589 58.5142C59.7834 58.9124 59.913 59.3086 60.0336 59.7083C60.0851 59.879 60.2606 60.3775 60.1728 60.2256C60.1109 60.1186 60.0699 59.9532 60.0268 59.8423C59.8749 59.4509 59.7151 59.0631 59.5637 58.6715C59.1843 57.6906 58.8767 56.6857 58.5836 55.6707C58.1941 54.3216 59.0944 58.4748 59.6504 59.7519C59.6778 59.8148 59.7366 59.9302 59.6903 59.7512C59.6212 59.4838 59.5258 59.224 59.4365 58.9644C59.1053 58.0024 58.829 57.0287 58.6028 56.0302C58.584 55.9472 58.5672 55.8636 58.5489 55.7805C58.5177 55.6399 58.5625 55.8947 58.5635 55.9014C58.6196 56.2686 58.6815 56.6329 58.7556 56.9963C58.9675 58.0358 59.224 59.0615 59.4612 60.0938C59.4708 60.1353 59.4795 60.1771 59.4889 60.2187C59.4952 60.2464 59.4794 60.1624 59.4735 60.1345C59.4056 59.8153 59.3297 59.4982 59.2475 59.1831C58.9975 58.2252 58.7208 57.2801 58.5163 56.308C58.4671 56.0743 58.3598 55.3686 58.3603 55.6089C58.3613 55.9848 58.4551 56.3957 58.5165 56.7592C58.7072 57.8884 58.9148 59.0168 59.125 60.1418C59.1637 60.3492 59.1473 60.1089 59.1459 60.0887C59.1301 59.8584 59.0831 59.6309 59.0406 59.4055C58.8538 58.4156 58.6564 57.4281 58.4759 56.4367C58.4315 56.1926 58.3635 55.459 58.3337 55.7065C58.2996 55.9894 58.3715 56.3557 58.4021 56.6306C58.5224 57.713 58.7282 58.7811 58.868 59.8604C58.8817 59.966 58.9425 60.2759 58.9045 60.1778C58.8474 60.0308 58.8331 59.7675 58.806 59.623C58.6134 58.5983 58.3722 57.5892 58.2493 56.5491C58.2252 56.3454 58.1455 55.9622 58.1884 55.7423C58.2306 55.5261 58.2231 56.1814 58.2377 56.4013C58.2986 57.3151 58.398 58.2246 58.4821 59.1359C58.5109 59.4493 58.541 59.7631 58.5552 60.0779C58.5574 60.1259 58.5591 60.174 58.5596 60.2222C58.5597 60.2349 58.5609 60.2725 58.5572 60.2604C58.5505 60.2378 58.5519 60.2132 58.5498 60.1896C58.4841 59.4337 58.3954 58.6804 58.3356 57.9239C58.2912 57.3622 58.2242 56.7737 58.3026 56.2101C58.3158 56.1154 58.3091 56.4012 58.3085 56.4968C58.3052 57.0547 58.3203 57.6112 58.3486 58.1678C58.3771 58.7312 58.4118 59.2946 58.4509 59.8571C58.4879 60.3906 58.3529 58.7924 58.2911 58.2619C58.209 57.5564 58.1628 56.8413 58.1587 56.1292C58.1585 56.0999 58.1591 56.0706 58.1597 56.0413C58.1598 56.0328 58.1584 56.0583 58.1581 56.0668C58.1495 56.2983 58.1534 56.5295 58.1566 56.761C58.1693 57.6975 58.1662 60.5075 58.147 59.5712C58.1317 58.8257 58.0487 58.089 58.0721 57.3413C58.0889 56.8043 58.2432 55.2122 58.2959 55.7457C58.3429 56.2224 58.2925 56.7367 58.2689 57.2111C58.2387 57.8197 58.194 58.4277 58.1667 59.0365C58.1558 59.2791 58.0984 60.0021 58.1483 59.7649C58.2484 59.2888 58.1807 58.7382 58.1823 58.2568C58.1846 57.5911 58.2016 56.9281 58.2726 56.2658C58.3166 55.856 58.2297 56.5112 58.2226 56.5507C58.0899 57.2879 58.0286 58.028 57.9705 58.7748C57.9551 58.9724 57.9364 59.1728 57.9411 59.3713C57.9432 59.4618 57.9617 59.1913 57.9651 59.1009C57.9922 58.3915 57.9717 57.6727 58.1169 56.9745C58.1261 56.9303 58.2959 56.3623 58.2189 56.7072C58.1139 57.1775 58.0052 57.6393 57.9401 58.1187C57.905 58.3771 57.8698 58.6358 57.8363 58.8945C57.8048 59.1369 57.8659 58.861 57.8705 58.8407C57.9894 58.3186 58.0724 57.7823 58.1484 57.2516C58.1764 57.0568 58.1969 56.8606 58.2273 56.6662C58.253 56.5017 58.2565 56.5754 58.2488 56.7011C58.2153 57.2442 58.1613 57.8022 58.0028 58.3225C57.9536 58.484 57.895 58.6473 57.8273 58.8012C57.8068 58.8476 57.8215 58.6984 57.8279 58.6477C57.8638 58.3628 57.9022 58.0804 57.9714 57.8022" stroke="#0B7D66" stroke-width="0.310014" stroke-linecap="round"/>
<ellipse cx="10.3257" cy="4.07793" rx="10.3257" ry="4.07793" transform="matrix(0.979119 -0.20329 0.165441 0.98622 39.022 55.374)" fill="#0B7D66"/>
<ellipse cx="10.2726" cy="5.13514" rx="10.2726" ry="5.13514" transform="matrix(0.9995 0.0316306 -0.0361236 0.999347 59.6404 49.3389)" fill="#0B7D66"/>
<path d="M36.3216 55.6735C35.8969 54.5977 36.9264 52.5932 39.4005 53.9708" stroke="#0B7D66" stroke-width="0.103338"/>
<path d="M39.4801 55.2733C39.4981 54.9815 39.4442 54.6902 39.3237 54.4276C39.2032 54.1649 39.0202 53.9398 38.7922 53.774C38.5642 53.6082 38.2991 53.5072 38.0224 53.4809C37.7457 53.4546 37.4667 53.5038 37.2125 53.6238C36.9583 53.7437 36.7374 53.9304 36.5711 54.1658C36.4048 54.4011 36.2988 54.6772 36.2634 54.9673C36.2279 55.2575 36.2641 55.5519 36.3685 55.8221C36.4729 56.0923 37.8925 58.6871 38.0605 58.7811L37.8668 55.1738L39.4801 55.2733Z" fill="#0B7D66"/>
<rect width="0.748759" height="0.451659" transform="matrix(0.906176 0.4229 -0.375045 0.927007 38.6873 53.6543)" fill="#0B7D66"/>
<path d="M77.6211 50.3195C77.9209 50.39 78.7746 50.3512 79.7905 49.6316C81.0603 48.7321 82.7207 49.7904 82.0857 52.2772" stroke="#0B7D66" stroke-width="0.105822"/>
<ellipse cx="80.6378" cy="50.8489" rx="1.48151" ry="1.53442" fill="#0B7D66"/>
<rect x="81.427" y="50.3726" width="0.846578" height="2.12235" rx="0.423289" transform="rotate(5.22864 81.427 50.3726)" fill="#0B7D66"/>
<path d="M7.43262 22.0216L60.4579 6.51123L113.433 22.0216V53.8296C113.433 87.2621 92.086 116.943 60.4403 127.511C28.786 116.943 7.43262 87.2556 7.43262 53.8149V22.0216Z" stroke="#0B7D66" stroke-width="8" stroke-linejoin="round"/>
</svg>
